<svg xmlns="http://www.w3.org/2000/svg" width="207" height="44" fill="none"><g clip-path="url(#a)"><path fill="#fff" d="m130.991 7.981 1.69.327c.355.055.463.219.463.435V21.91c0 .873-1.036 1.419-2.153 1.144zM133.471 26.9c.654 0 2.564.084 2.727 0 .136-.082.136-.135.136-.246V5.038l1.663.327c.382.083.49.218.49.462v22.055c0 1.308-1.391 1.99-2.236 1.089-.682-.71-1.582-1.255-2.835-1.663-.272-.083-.247-.41.055-.41z" style="fill:#fff;fill-opacity:1"/><path fill="url(#b)" d="M123.887 14.44c.601.313 1.157.72 1.693 1.15a18 18 0 0 1 1.529 1.406c.486.501.946 1.03 1.387 1.575.223.272.427.556.644.835l.611.866a1.34 1.34 0 1 1-2.377 1.157l-.01-.038-.275-.926c-.103-.302-.198-.613-.312-.915a21 21 0 0 0-.747-1.799 17 17 0 0 0-.941-1.726c-.354-.555-.737-1.104-1.202-1.59z"/><path fill="url(#c)" d="M128.184 13.324c.9 0 1.499-.327 1.499-.926 0-.435-.491-.79-1.064-1.336-.491.574-.79.79-1.281.79h-2.998V7.573c1.69-.3 3.107-.626 3.927-.9.41-.136.49-.41 0-.954l-.873-.926c-2.181 1.09-6.707 2.262-10.523 3.135-.408.083-.355.573.136.546 1.582-.056 3.436-.272 5.179-.546v3.927h-6.678c.518 1.172.681 1.471 1.172 1.471h4.908c-.463 1.555-1.145 3.135-1.99 4.662-1.308 2.372-2.891 4.661-4.334 6.243-.247.272.108.574.435.355 1.826-1.227 4.007-3.572 5.451-5.917.435-.681.762-1.363 1.036-1.962v22.618c1.117.219 2.154-.164 2.154-1.472v-24.53z"/><g fill="#fff" opacity=".9"><path d="M101.888 35.778v3.643h-.413V36.42c-.208.58-.515 1.222-.928 1.713l-.143-.131c.465-.72.817-1.774 1.026-2.727h-.956v-.254h1.001v-.941a10 10 0 0 1-.895.176l-.045-.196c.613-.118 1.406-.438 1.791-.68l.38.287a7 7 0 0 1-.818.302v1.054h.777v.254h-.777v.197c.274.269.548.6.76.908l-.347.229c-.139-.302-.282-.576-.413-.83zm.908 2.045.184.04c-.025.531-.209 1.072-.458 1.4l-.347-.255c.287-.282.49-.634.621-1.185m2.984-.294h-2.989v-.242h2.571v-.384h-2.87v-.242h2.87v-.335h-2.498v-.241h2.918v.576h.576v.242h-.576v.628zm-3.147-3.648c.908-.058 2.347-.294 3.061-.543l.34.347c-.491.118-1.223.221-1.95.302.189.189.418.49.576.76l-.261.156h.568c.118-.275.282-.712.372-1.06l.418.164c-.204.367-.392.68-.556.896h.843v.241h-1.492v.418h1.68v.241h-3.637v-.241h1.537v-.418h-1.341v-.241h.516a8 8 0 0 0-.385-.825c-.091 0-.176.007-.262.007l-.032-.204zm1.242.123q-.372.04-.727.058c.204.204.373.446.524.68l-.275.156h.903a9 9 0 0 0-.425-.896zm1.467 4.129c.189.805.111 1.086-.405 1.119-.335.02-.629.013-.896 0-.679-.04-.719-.196-.719-.641v-.916h.412v.83c0 .294.058.352.393.372.196.013.445.02.707 0 .327-.025.334-.098.327-.764h.183zm-1.198-.544c.229.189.536.523.733.798l-.32.216a9 9 0 0 0-.543-.908zm2.27 1.296-.353.216c-.13-.327-.392-.85-.613-1.222l.138-.099c.319.315.667.793.83 1.105zM109.332 34.9v4.5h-.405v-3.539a4.6 4.6 0 0 1-.654.969l-.151-.131c.613-.89.993-2.31 1.137-3.348l.437.085a10 10 0 0 1-.367 1.464zm4.774 3.88-.131.465a7 7 0 0 1-.719.032c-1.268.02-2.199-.17-2.82-.85a3.2 3.2 0 0 1-.818 1.034l-.138-.143a3.2 3.2 0 0 0 .76-1.145c-.274-.392-.471-.923-.596-1.61l.188-.025c.111.536.282.968.523 1.3.184-.613.249-1.283.275-1.904h-.458a6 6 0 0 1-.139.335l-.384-.086c.228-.49.515-1.255.699-1.982h-.647v-.254h1.158c-.164.58-.38 1.202-.582 1.733h.302l.111-.09.36.105c-.053.863-.171 1.7-.471 2.42.503.523 1.243.745 2.282.752.548 0 .948-.032 1.243-.085zm-1.982-3.671h-1.177v-.254h1.177v-.564h-.891v-.254h.891v-.666h.412v.666h.989v.818h.458v.254h-.458v.883h-.989v.548h1.12v.254h-1.12v.556h1.354v.254h-1.354v1.022h-.412v-1.022h-1.132v-.254h1.132v-.556h-.941v-.254h.941v-.548h-.81v-.262h.81zm.412-.254h.622v-.564h-.622zm0 .883h.622v-.629h-.622zM117.344 36.825v1.954c0 .549-.352.83-1.399.425l.053-.183c.825.09.923.053.923-.34V37.08a9 9 0 0 1-.817.425l-.209-.425c.327-.11.687-.25 1.026-.393v-1.61h-.994v-.254h.994v-1.459h.425v1.46h.793v.253h-.793v1.42c.196-.091.38-.184.536-.27l.106.163a9 9 0 0 1-.642.433zm2.654 1.386c.465.302 1.039.503 1.713.666l-.189.466c-.687-.176-1.308-.458-1.811-.89-.548.445-1.263.792-2.158.98l-.053-.188c.81-.242 1.459-.596 1.954-1.027-.412-.425-.727-.973-.915-1.675h-.405v-.254h2.407l.131-.086.45.197a4.4 4.4 0 0 1-1.124 1.81m1.766-2.538c-.171.176-.36.236-.74.236-.727 0-.87-.085-.87-.707V33.92h-1.087c0 1.178-.189 1.84-1.072 2.237l-.105-.172c.666-.457.744-.96.744-2.329h1.95v1.504c0 .27.04.353.412.36.302.008.426-.058.549-.163l.216.314zm-3.022.87c.222.642.536 1.1.956 1.446.433-.432.72-.923.883-1.446zM125.899 38.341l.373.34c-.629.347-1.603.629-2.486.74l-.045-.197a7 7 0 0 0 2.158-.883m-1.851-2.301-.269-.353c.503-.327.993-.72 1.393-1.119l.144.123c-.34.45-.785.941-1.268 1.349m1.026-1.701a9 9 0 0 0-1.124-.68l.065-.188c.36.086.871.262 1.301.483zm-.49 1.582h3.969v2.38h-3.969zm.432.7h3.107v-.446h-3.107zm0 .686h3.107v-.437h-3.107zm0 .74h3.107v-.49h-3.107zm.503-3.061-.138-.139c.38-.405.629-.903.838-1.557l.412.118a4 4 0 0 1-.188.425h2.085l.151-.078.405.25c-.236.36-.536.706-.843.923l-.138-.124c.204-.254.319-.465.445-.712h-.988a2.3 2.3 0 0 1-.124.38c.516.662 1.203.896 1.983 1.022l-.184.437c-.634-.138-1.446-.53-1.904-1.255-.385.674-1.152 1.047-2.048 1.145l-.058-.184c.961-.216 1.668-.674 1.877-1.544h-.805a3.7 3.7 0 0 1-.778.895zm3.905 3.982-.204.47c-.576-.269-1.582-.634-2.249-.85l.053-.204c.679.11 1.708.327 2.4.581zM135.526 34.895v4.52h-.417V35.74c-.269.466-.556.843-.825 1.1l-.144-.139c.524-.679 1.12-1.904 1.399-3.4l.47.117a8.5 8.5 0 0 1-.483 1.48zm1.837 3.48.425.268c-.511.368-1.353.712-1.97.843l-.058-.188a5 5 0 0 0 1.603-.924m-.091-4.358h-1.202v-.261h3.884v.261h-1.25v.458h1.104v1.203h-3.643v-1.203h1.105v-.458zm-.817 4.26v-2.232h3.034v2.231zm.131-2.846h.686v-.7h-.686zm.286 1.268h2.191v-.4h-2.191zm0 .654h2.191v-.418h-2.191zm0 .674h2.191v-.438h-2.191zm1.434-4.01h-.641v.458h.641zm-.641 1.414h.641v-.7h-.641zm2.427 3.655-.241.418c-.445-.32-1.145-.687-1.595-.908l.073-.19c.47.124 1.255.386 1.766.68zm-1.388-4.354v.699h.686v-.7zM143.257 35.01v4.416h-.425v-3.578c-.217.353-.466.68-.76.982l-.143-.139c.674-.928 1.091-2.027 1.333-3.388l.483.11a9 9 0 0 1-.491 1.595zm4.546 3.913v.261h-4.232v-.261h.647v-3.749h1.092c.04-.236.078-.498.118-.764h-1.595v-.254h1.628c.04-.287.073-.564.098-.806l.458.046q-.048.392-.106.76h1.635v.254h-1.668l-.118.764h1.348v3.749zm-1.105-3.492h-2.08v.641h2.08zm0 .883h-2.08V37h2.08zm0 .928h-2.08v.712h2.08zm0 .956h-2.08v.727h2.08zM155.508 38.812l-.262.53c-1.333-.314-2.596-1.184-3.074-2.673h-.969v1.942c.549-.091 1.1-.204 1.525-.32l.073.204c-.712.314-2.035.679-2.838.825l-.163-.523c.287-.025.614-.066.948-.111v-2.015h-1.071v-.262h1.177V33.72h3.866v.262h-3.408v.621h3.033v.27h-3.033v.633h3.033v.262h-3.033v.641h4.12v.262h-3.021c.221.503.516.89.875 1.197.302-.261.647-.634.949-1.071l.425.294c-.38.372-.805.707-1.19.923.556.405 1.25.642 2.04.805zM157.43 35.534h2.656v-.576h-1.758v-.254h1.758v-.523h-2.211v-.255h2.211v-.6h.458v.6h2.211v.255h-2.211v.523h1.872v.254h-1.872v.576h2.689v.254h-5.801v-.254zm1.026.734h3.794v2.571c0 .642-.602.793-1.636.36l.053-.196c1.014.156 1.137.09 1.137-.315v-.568h-2.91v1.32h-.438zm3.351.79v-.535h-2.911v.535zm0 .813v-.556h-2.911v.556z" style="fill:#fff;fill-opacity:1"/><path d="M101.888 35.778v3.643h-.413V36.42c-.208.58-.515 1.222-.928 1.713l-.143-.131c.465-.72.817-1.774 1.026-2.727h-.956v-.254h1.001v-.941a10 10 0 0 1-.895.176l-.045-.196c.613-.118 1.406-.438 1.791-.68l.38.287a7 7 0 0 1-.818.302v1.054h.777v.254h-.777v.197c.274.269.548.6.76.908l-.347.229c-.139-.302-.282-.576-.413-.83zm.908 2.045.184.04c-.025.531-.209 1.072-.458 1.4l-.347-.255c.287-.282.49-.634.621-1.185m2.984-.294h-2.989v-.242h2.571v-.384h-2.87v-.242h2.87v-.335h-2.498v-.241h2.918v.576h.576v.242h-.576v.628zm-3.147-3.648c.908-.058 2.347-.294 3.061-.543l.34.347c-.491.118-1.223.221-1.95.302.189.189.418.49.576.76l-.261.156h.568c.118-.275.282-.712.372-1.06l.418.164c-.204.367-.392.68-.556.896h.843v.241h-1.492v.418h1.68v.241h-3.637v-.241h1.537v-.418h-1.341v-.241h.516a8 8 0 0 0-.385-.825c-.091 0-.176.007-.262.007l-.032-.204zm1.242.123q-.372.04-.727.058c.204.204.373.446.524.68l-.275.156h.903a9 9 0 0 0-.425-.896zm1.467 4.129c.189.805.111 1.086-.405 1.119-.335.02-.629.013-.896 0-.679-.04-.719-.196-.719-.641v-.916h.412v.83c0 .294.058.352.393.372.196.013.445.02.707 0 .327-.025.334-.098.327-.764h.183zm-1.198-.544c.229.189.536.523.733.798l-.32.216a9 9 0 0 0-.543-.908zm2.27 1.296-.353.216c-.13-.327-.392-.85-.613-1.222l.138-.099c.319.315.667.793.83 1.105zM109.332 34.9v4.5h-.405v-3.539a4.6 4.6 0 0 1-.654.969l-.151-.131c.613-.89.993-2.31 1.137-3.348l.437.085a10 10 0 0 1-.367 1.464zm4.774 3.88-.131.465a7 7 0 0 1-.719.032c-1.268.02-2.199-.17-2.82-.85a3.2 3.2 0 0 1-.818 1.034l-.138-.143a3.2 3.2 0 0 0 .76-1.145c-.274-.392-.471-.923-.596-1.61l.188-.025c.111.536.282.968.523 1.3.184-.613.249-1.283.275-1.904h-.458a6 6 0 0 1-.139.335l-.384-.086c.228-.49.515-1.255.699-1.982h-.647v-.254h1.158c-.164.58-.38 1.202-.582 1.733h.302l.111-.09.36.105c-.053.863-.171 1.7-.471 2.42.503.523 1.243.745 2.282.752.548 0 .948-.032 1.243-.085zm-1.982-3.671h-1.177v-.254h1.177v-.564h-.891v-.254h.891v-.666h.412v.666h.989v.818h.458v.254h-.458v.883h-.989v.548h1.12v.254h-1.12v.556h1.354v.254h-1.354v1.022h-.412v-1.022h-1.132v-.254h1.132v-.556h-.941v-.254h.941v-.548h-.81v-.262h.81zm.412-.254h.622v-.564h-.622zm0 .883h.622v-.629h-.622zM117.344 36.825v1.954c0 .549-.352.83-1.399.425l.053-.183c.825.09.923.053.923-.34V37.08a9 9 0 0 1-.817.425l-.209-.425c.327-.11.687-.25 1.026-.393v-1.61h-.994v-.254h.994v-1.459h.425v1.46h.793v.253h-.793v1.42c.196-.091.38-.184.536-.27l.106.163a9 9 0 0 1-.642.433zm2.654 1.386c.465.302 1.039.503 1.713.666l-.189.466c-.687-.176-1.308-.458-1.811-.89-.548.445-1.263.792-2.158.98l-.053-.188c.81-.242 1.459-.596 1.954-1.027-.412-.425-.727-.973-.915-1.675h-.405v-.254h2.407l.131-.086.45.197a4.4 4.4 0 0 1-1.124 1.81m1.766-2.538c-.171.176-.36.236-.74.236-.727 0-.87-.085-.87-.707V33.92h-1.087c0 1.178-.189 1.84-1.072 2.237l-.105-.172c.666-.457.744-.96.744-2.329h1.95v1.504c0 .27.04.353.412.36.302.008.426-.058.549-.163l.216.314zm-3.022.87c.222.642.536 1.1.956 1.446.433-.432.72-.923.883-1.446zM125.899 38.341l.373.34c-.629.347-1.603.629-2.486.74l-.045-.197a7 7 0 0 0 2.158-.883m-1.851-2.301-.269-.353c.503-.327.993-.72 1.393-1.119l.144.123c-.34.45-.785.941-1.268 1.349m1.026-1.701a9 9 0 0 0-1.124-.68l.065-.188c.36.086.871.262 1.301.483zm-.49 1.582h3.969v2.38h-3.969zm.432.7h3.107v-.446h-3.107zm0 .686h3.107v-.437h-3.107zm0 .74h3.107v-.49h-3.107zm.503-3.061-.138-.139c.38-.405.629-.903.838-1.557l.412.118a4 4 0 0 1-.188.425h2.085l.151-.078.405.25c-.236.36-.536.706-.843.923l-.138-.124c.204-.254.319-.465.445-.712h-.988a2.3 2.3 0 0 1-.124.38c.516.662 1.203.896 1.983 1.022l-.184.437c-.634-.138-1.446-.53-1.904-1.255-.385.674-1.152 1.047-2.048 1.145l-.058-.184c.961-.216 1.668-.674 1.877-1.544h-.805a3.7 3.7 0 0 1-.778.895zm3.905 3.982-.204.47c-.576-.269-1.582-.634-2.249-.85l.053-.204c.679.11 1.708.327 2.4.581zM135.526 34.895v4.52h-.417V35.74c-.269.466-.556.843-.825 1.1l-.144-.139c.524-.679 1.12-1.904 1.399-3.4l.47.117a8.5 8.5 0 0 1-.483 1.48zm1.837 3.48.425.268c-.511.368-1.353.712-1.97.843l-.058-.188a5 5 0 0 0 1.603-.924m-.091-4.358h-1.202v-.261h3.884v.261h-1.25v.458h1.104v1.203h-3.643v-1.203h1.105v-.458zm-.817 4.26v-2.232h3.034v2.231zm.131-2.846h.686v-.7h-.686zm.286 1.268h2.191v-.4h-2.191zm0 .654h2.191v-.418h-2.191zm0 .674h2.191v-.438h-2.191zm1.434-4.01h-.641v.458h.641zm-.641 1.414h.641v-.7h-.641zm2.427 3.655-.241.418c-.445-.32-1.145-.687-1.595-.908l.073-.19c.47.124 1.255.386 1.766.68zm-1.388-4.354v.699h.686v-.7zM143.257 35.01v4.416h-.425v-3.578c-.217.353-.466.68-.76.982l-.143-.139c.674-.928 1.091-2.027 1.333-3.388l.483.11a9 9 0 0 1-.491 1.595zm4.546 3.913v.261h-4.232v-.261h.647v-3.749h1.092c.04-.236.078-.498.118-.764h-1.595v-.254h1.628c.04-.287.073-.564.098-.806l.458.046q-.048.392-.106.76h1.635v.254h-1.668l-.118.764h1.348v3.749zm-1.105-3.492h-2.08v.641h2.08zm0 .883h-2.08V37h2.08zm0 .928h-2.08v.712h2.08zm0 .956h-2.08v.727h2.08zM155.508 38.812l-.262.53c-1.333-.314-2.596-1.184-3.074-2.673h-.969v1.942c.549-.091 1.1-.204 1.525-.32l.073.204c-.712.314-2.035.679-2.838.825l-.163-.523c.287-.025.614-.066.948-.111v-2.015h-1.071v-.262h1.177V33.72h3.866v.262h-3.408v.621h3.033v.27h-3.033v.633h3.033v.262h-3.033v.641h4.12v.262h-3.021c.221.503.516.89.875 1.197.302-.261.647-.634.949-1.071l.425.294c-.38.372-.805.707-1.19.923.556.405 1.25.642 2.04.805zM157.43 35.534h2.656v-.576h-1.758v-.254h1.758v-.523h-2.211v-.255h2.211v-.6h.458v.6h2.211v.255h-2.211v.523h1.872v.254h-1.872v.576h2.689v.254h-5.801v-.254zm1.026.734h3.794v2.571c0 .642-.602.793-1.636.36l.053-.196c1.014.156 1.137.09 1.137-.315v-.568h-2.91v1.32h-.438zm3.351.79v-.535h-2.911v.535zm0 .813v-.556h-2.911v.556z" style="fill:#fff;fill-opacity:1"/></g><path fill="url(#d)" d="M141.773 22.838c.646-1.409 1.182-2.843 1.718-4.56.704-2.225 1.099-4.31 1.378-6.476h-1.859c-.45 0-.618-.282-1.013-1.409h3.491V4.706l1.633.309c.337.055.45.169.45.367v5.011h.506c.422 0 .676-.196 1.182-.76.591.592.959.846.959 1.269 0 .618-.478.9-1.409.9h-1.24v2.169c1.154.787 1.859 1.154 2.364 2 .732 1.182-.676 2.845-1.549 1.154-.395-.787-.619-1.323-.818-1.774v13.431c0 1.042-1.127 1.52-2.083 1.296V16.45c-.646 2.392-1.69 5.069-3.237 6.674-.395.395-.619.027-.478-.282z"/><path fill="url(#e)" d="M145.966 30.186q-.247.001-.49-.058l-.043-.01v-13.26c-.589 2.06-1.59 4.692-3.142 6.3-.259.259-.43.188-.493.145-.131-.09-.164-.302-.078-.49.634-1.379 1.162-2.785 1.715-4.556.627-1.977 1.049-3.954 1.369-6.402h-1.794c-.49 0-.669-.307-1.066-1.447l-.025-.075h3.514V4.638l1.7.322c.347.058.496.183.496.422v4.956h.45c.403 0 .649-.194 1.14-.742l.04-.045.043.042q.166.167.309.302c.415.398.664.64.664 1.007 0 .644-.478.958-1.464.958h-1.182v2.083q.276.187.518.347c.85.566 1.411.938 1.839 1.653.272.438.282 1.008.028 1.454-.184.322-.466.513-.765.505-.242-.005-.594-.138-.908-.75a29 29 0 0 1-.71-1.529v13.16c0 .414-.171.772-.498 1.028-.309.247-.729.378-1.164.378zm-.423-.156c.541.113 1.132-.005 1.517-.31.297-.236.456-.56.456-.94v-13.7l.186.425c.176.405.395.908.737 1.595.289.56.601.684.81.69.254.007.501-.164.664-.449.179-.312.277-.85-.025-1.338-.415-.692-.969-1.062-1.806-1.617l-.544-.365-.025-.018V11.75h1.296c.923 0 1.351-.269 1.351-.845 0-.32-.224-.533-.629-.923q-.125-.119-.269-.262c-.491.541-.753.735-1.185.735h-.564V5.382c0-.15-.068-.254-.402-.31l-1.568-.296v5.675h-3.469c.38 1.074.544 1.296.934 1.296h1.922l-.008.063c-.322 2.485-.75 4.485-1.381 6.485-.553 1.776-1.084 3.185-1.721 4.568-.06.136-.042.294.041.352.08.056.208.005.347-.133 1.635-1.695 2.656-4.55 3.222-6.649l.111-.41V30.03z"/><path fill="url(#f)" d="M153.289 7.52V4.592l1.633.368c.45.113.505.254.505.505V7.52h1.661c.422 0 .676-.254 1.127-.76.618.592.958.846.958 1.21 0 .647-.506.929-1.323.929h-2.423v2.646h.846c.422 0 .618-.196 1.069-.704.676.591.958.818.958 1.182 0 .62-.422.9-1.295.9h-5.547c-.451 0-.591-.28-1.014-1.378h2.845V8.9h-3.041c-.368 0-.506-.31-.959-1.381h3.998z"/><path fill="url(#g)" d="m157.737 14.702-1.719-.536c-.337.45-.704.647-1.182.647h-2.196c-.028-.169-.196-.31-.506-.365l-1.577-.31v7.153c.647.14 1.942.027 2.083-1.1h3.378v.986c1.1.169 2.083-.282 2.083-1.323v-3.66c0-.506.677-1.182-.364-1.492m-1.719 4.138h-3.378v-2.674h3.378z"/><path fill="url(#h)" d="M163.226 33.69c-.295 0-.584-.108-.841-.32-1.076-.887-2.525-1.365-3.486-1.68q-.277-.089-.486-.163c-.196-.058-.266-.22-.249-.343s.129-.246.332-.246c.151 0 .418.002.745.005.956.01 2.943.03 3.107-.028.09-.055.09-.07.09-.176V12.967h-2.842c-.4 0-.554-.383-1.009-1.517l-.045-.116h3.896V4.612l1.736.36c.418.083.574.236.574.561v5.801h.676c.373 0 .599-.184 1.092-.732l.058-.066.214.202c.503.475.805.762.805 1.157 0 .958-.82 1.07-1.437 1.07h-1.408v19.014c0 .662-.4 1.311-.974 1.583a1.3 1.3 0 0 1-.548.126zm-4.73-2.581c-.093 0-.156.038-.166.1-.007.056.03.126.134.157q.215.074.488.163c.971.32 2.44.803 3.542 1.71.367.305.794.366 1.207.172.516-.244.878-.83.878-1.43V12.797h1.577c.888 0 1.268-.27 1.268-.901 0-.322-.267-.576-.752-1.034l-.088-.083c-.445.49-.717.724-1.16.724h-.845V5.533c0-.191-.03-.314-.438-.395l-1.532-.317v6.682h-3.816c.41 1.023.538 1.295.805 1.295h3.014v17.946c0 .134-.01.222-.181.327-.134.066-1.178.068-3.188.045-.324-.002-.591-.005-.742-.005z"/><path fill="url(#i)" d="M158.496 31.016c.677 0 3.716.055 3.887-.028.141-.085.141-.14.141-.254V12.871h-2.928c-.337 0-.478-.337-.929-1.464h3.857V4.706l1.632.337c.423.085.506.226.506.478v5.884h.76c.422 0 .676-.227 1.154-.76.592.563.929.845.929 1.24 0 .704-.451.986-1.351.986h-1.492v19.101c0 1.155-1.24 2.14-2.224 1.323-1.295-1.069-3.124-1.55-3.997-1.859-.282-.085-.254-.422.055-.422z"/><path fill="url(#j)" d="M159.679 14.954c1.182 1.491 1.886 2.477 2.196 3.688.505 1.972-1.55 2.76-1.915.928-.337-1.746-.505-2.815-.817-4.42-.056-.254.281-.506.536-.196"/><path fill="url(#k)" d="M151.747 21.708c.86.805 1.555 1.527 1.804 2.526.39 1.5-1.334 2.639-1.776.611-.166-.75-.39-2.138-.529-2.887-.055-.333.222-.501.501-.25"/><path fill="url(#l)" d="M154.798 25.834c.466-1.34.74-2.873.984-4.457l1.477.711c.437.22.545.383.354.712a50 50 0 0 1-1.612 2.762"/><path fill="url(#m)" d="M157.005 12.984h-5.547c-.498 0-.652-.34-1.067-1.416l-.03-.075h2.87V8.959h-2.983c-.413 0-.564-.357-1.009-1.413l-.033-.078h4.028V4.522l1.703.382c.468.119.551.275.551.561v2h1.605c.387 0 .616-.214 1.084-.742l.038-.043.042.04q.137.132.254.24c.466.435.72.674.72 1.01 0 .451-.239.987-1.381.987h-2.365v2.533h.788c.387 0 .568-.168 1.028-.684l.038-.043.146.128c.616.539.87.763.87 1.133 0 .643-.442.958-1.35.958zm-6.478-1.38c.402 1.04.536 1.267.931 1.267h5.547c.845 0 1.237-.269 1.237-.845 0-.322-.244-.533-.832-1.049l-.063-.055c-.42.473-.637.681-1.074.681h-.901v-2.76h2.478c.84 0 1.268-.294 1.268-.872 0-.287-.244-.516-.685-.928q-.099-.094-.213-.202c-.42.47-.69.735-1.13.735h-1.718v-2.11c0-.215-.023-.343-.463-.453l-1.562-.35v2.913h-3.97c.423 1.001.556 1.268.873 1.268h3.097v2.76h-2.82"/><path fill="url(#n)" d="M151.038 21.396c-.176 0-.345-.017-.493-.05l-.046-.01V14.07l1.645.322c.292.053.486.183.541.365h2.151c.463 0 .813-.194 1.137-.624l.025-.033 1.756.546q.44.13.566.377c.118.227.03.486-.055.735-.053.156-.103.302-.103.435v3.66c0 .415-.154.765-.443 1.014-.395.34-1.016.473-1.706.367l-.047-.007v-.979h-3.273a1.2 1.2 0 0 1-.506.828c-.322.229-.752.32-1.144.32zm-.426-.153c.441.083 1.085.04 1.505-.26q.4-.284.465-.8l.005-.05h3.484v.994c.637.088 1.205-.038 1.568-.347.264-.227.405-.549.405-.928v-3.66c0-.151.055-.315.108-.471.08-.236.158-.463.063-.646-.071-.139-.234-.242-.499-.322l-1.68-.524c-.342.44-.714.64-1.202.64h-2.244l-.008-.049c-.025-.153-.194-.271-.46-.319l-1.51-.297v7.039m5.464-2.347h-3.491v-2.788h3.491zm-3.378-.111h3.265v-2.56h-3.265z"/><path fill="url(#o)" d="M160.914 20.662a.9.9 0 0 1-.252-.038c-.377-.12-.646-.488-.755-1.039-.173-.9-.304-1.627-.43-2.33-.121-.676-.236-1.312-.385-2.09a.34.34 0 0 1 .189-.374c.118-.058.297-.053.445.13 1.122 1.417 1.882 2.44 2.206 3.71.184.713.051 1.37-.354 1.752a.97.97 0 0 1-.662.279zm-1.495-5.793a.2.2 0 0 0-.093.022.225.225 0 0 0-.125.25c.15.779.264 1.415.387 2.092.126.702.257 1.429.43 2.33.101.508.342.845.679.953.269.086.569.005.803-.216.375-.355.495-.969.324-1.64-.294-1.15-.91-2.06-2.186-3.668-.065-.08-.141-.124-.216-.124z"/><path fill="url(#p)" d="M152.668 25.998a.6.6 0 0 1-.194-.03c-.352-.109-.619-.501-.752-1.11-.111-.5-.247-1.285-.368-1.977-.06-.342-.115-.662-.161-.91-.03-.182.028-.335.151-.403.129-.07.295-.033.443.1.845.79 1.565 1.527 1.821 2.556.149.569.005 1.165-.364 1.52a.84.84 0 0 1-.576.256zm-1.185-4.353a.2.2 0 0 0-.086.02c-.08.043-.116.154-.095.285l.161.91c.12.692.254 1.475.367 1.973.123.566.365.93.674 1.026.216.066.458-.007.659-.201.257-.247.501-.765.332-1.409-.249-.998-.958-1.723-1.788-2.5q-.119-.105-.227-.106z"/><path fill="url(#q)" d="m154.851 25.854-.105-.038c.437-1.263.709-2.692.981-4.448l.012-.075 1.545.745c.289.143.422.259.465.4.033.11.005.234-.085.39a51 51 0 0 1-1.615 2.764l-.096-.06a53 53 0 0 0 1.613-2.76c.075-.128.098-.224.075-.302-.033-.105-.153-.206-.405-.332l-1.406-.677c-.269 1.729-.541 3.14-.976 4.393z"/><path fill="url(#r)" d="M148.499 26.943a8 8 0 0 0 .466-.068q.25-.04.505-.09a29.45 29.45 0 0 0 3.064-.77c1.354-.412 2.69-.91 3.988-1.494a31.1 31.1 0 0 0 7.252-4.528 30 30 0 0 0 3.066-3.036 29 29 0 0 0 2.561-3.512c1.515-2.488 2.639-5.233 3.386-8.095-.47 2.918-1.335 5.798-2.644 8.5a30.4 30.4 0 0 1-2.301 3.884 31 31 0 0 1-2.913 3.491 33.3 33.3 0 0 1-7.253 5.555 36.4 36.4 0 0 1-6.311 2.835 27 27 0 0 1-1.691.513c-.201.053-.375.098-.621.151l-.556-3.338z"/><path fill="url(#s)" d="m149.007 30.35-.573-3.457.06-.005c.096-.01.247-.033.463-.066.176-.03.34-.057.503-.09.355-.068.7-.14 1.022-.216a30 30 0 0 0 2.037-.549 34 34 0 0 0 3.982-1.491 31 31 0 0 0 7.24-4.521 30.5 30.5 0 0 0 3.062-3.029 29 29 0 0 0 2.556-3.504 29.4 29.4 0 0 0 2.636-5.642l-3.117.81 5.099-5.588.025 7.255-1.678-2.334a30 30 0 0 1-2.128 5.96 31 31 0 0 1-2.307 3.891 31.6 31.6 0 0 1-2.918 3.5 33.1 33.1 0 0 1-7.265 5.561 36.3 36.3 0 0 1-6.321 2.838c-.36.123-.725.239-1.12.352q-.283.082-.573.16l-.048.014c-.179.047-.35.09-.576.138l-.058.012zm-.442-3.356.535 3.222c.197-.043.35-.083.514-.126l.047-.012c.192-.053.383-.103.571-.161a32.355 32.355 0 0 0 3.286-1.165 37 37 0 0 0 4.133-2.017 33 33 0 0 0 7.24-5.545 32 32 0 0 0 2.908-3.484 30 30 0 0 0 2.297-3.876 30 30 0 0 0 2.148-6.055l.028-.121 1.615 2.249-.023-6.614-4.646 5.092 2.95-.767-.035.098a29.6 29.6 0 0 1-2.681 5.763 30 30 0 0 1-2.566 3.517 31 31 0 0 1-3.074 3.041 31.1 31.1 0 0 1-7.265 4.538 34 34 0 0 1-6.04 2.048c-.325.078-.669.15-1.024.219q-.249.047-.493.088h-.015c-.179.03-.312.05-.41.063z"/><path fill="url(#t)" d="m169.047 8.484 4.872-5.338.025 6.933-1.738-2.418z"/><path fill="url(#u)" d="M94.044 15.24c1.047-1.61 1.555-2.789 1.797-3.433h-5.042c-.402 0-.483-.214-.966-1.34h5.66c.564 0 .858-.215 1.233-.592l1.072.83c.51.403.535.697.294 1.152-.322.617-.697 1.45-2.495 3.89l-.028.027v1.26l.591.35c.672-.886 1.34-2.146 1.877-3.298l1.071.777c.536.403.536.592.189.911a23 23 0 0 1-2.495 2.013c.804.51 1.393.938 1.796 1.474 1.099 1.474-.108 3.084-1.153 1.635-.724-.991-1.26-1.932-1.876-2.79v21.09c0 1.261-.913 1.691-2.038 1.475V18.217c-.966.99-2.118 1.985-3.486 2.815-.35.213-.591-.161-.322-.43 2.037-2.066 3.084-3.487 4.319-5.364z"/><path fill="#fff" d="M113.784 27.605c-2.468-.591-4.425-1.421-6.007-2.468 1.421-1.232 2.44-2.52 3.378-3.916.295-.43.27-.697-.188-1.072l-1.1-.938c-.455.455-.671.563-1.288.563h-3.378c.242-.35.455-.697.644-1.019.269-.455.214-.59-.269-.885l-.053-.028h4.05v.752c1.099.214 2.038-.108 2.038-1.152v-5.069c0-.563.536-1.152-.375-1.449l-1.663-.536c-.375.403-.616.592-1.071.592h-5.097v-.08c0-.162-.161-.27-.43-.323l-1.369-.294c.134-.189.269-.35.375-.536.133-.189.242-.35.35-.536h9.388c.966 0 1.474-.241 1.474-.885 0-.375-.43-.725-.966-1.26-.483.51-.724.777-1.233.777h-7.831c.322-.592.592-1.1.753-1.502.133-.322.027-.483-.511-.777l-1.208-.697c-.374 1.421-1.018 3.031-1.635 4.344-.644 1.394-1.26 2.52-2.145 3.809-.295.402.108.59.35.402.965-.805 1.851-1.796 2.6-2.79v8.209c.858.133 1.796-.134 1.985-.991h.672c-.536 1.288-1.208 2.36-2.093 3.54-1.047 1.393-2.28 2.68-3.648 3.86-.43.35-.053.645.27.483 1.554-.777 3.136-1.984 4.638-3.539l.081-.08a15.2 15.2 0 0 0 2.065 2.95c-.214.189-.455.35-.672.511-1.876 1.313-4.158 2.44-7.162 3.273-.455.133-.402.591.134.536 2.95-.322 6.168-1.26 8.528-2.951l.322-.242c1.313 1.127 3.056 2.093 4.585 2.657.858.322.992.241 1.422 0 .375-.214.671-.403 1.368-.833.322-.189.134-.35-.08-.402zM103.405 12.29h6.168v1.474h-6.168zm0 4.211V15.08h6.168v1.421zm3.004 7.59a18.2 18.2 0 0 1-2.441-2.762c.081-.08.134-.134.189-.214h4.614c-.591 1.019-1.422 2.065-2.36 2.976z" style="fill:#fff;fill-opacity:1"/><path fill="url(#v)" d="M99.123 10.894c-.206.367-.4.674-.603.999-.204.32-.408.634-.622.945q-.631.934-1.31 1.824a40 40 0 0 1-2.896 3.401 30.5 30.5 0 0 1-3.315 2.961 20.6 20.6 0 0 1-3.781 2.237 20 20 0 0 0 3.278-2.8 29 29 0 0 0 2.646-3.348 38 38 0 0 0 3.074-5.567c.146-.32.282-.642.418-.964.13-.317.264-.657.367-.943l2.747 1.252z"/><path fill="url(#w)" fill-rule="evenodd" d="M93.244 9.198V6.114A3.094 3.094 0 0 1 96.33 3.03v3.084a3.094 3.094 0 0 1-3.085 3.084" clip-rule="evenodd"/><path fill="#fff" d="M41.43 27.809V26.64h-3.88c-.318 0-.383-.15-.682-.865h4.563v-1.5l1.082.2c.183.032.284.15.284.266v1.034h3.114c.284 0 .45-.133.75-.483.4.367.634.584.634.783 0 .417-.317.566-.9.566h-3.598v1.167h5.164c.332 0 .483-.134.783-.483.4.382.649.566.649.782 0 .4-.3.599-.866.599H35.65c-.317 0-.4-.25-.7-.9h6.48zm-5.83-3.283c.865-.634 1.348-1.016 1.881-1.716.101-.133.383-.115.332.1-.249 1-.465 1.651-.915 2.232-1.1 1.416-2.365.166-1.3-.616zm5.864-3.016v-.9h-4.25c-.299 0-.349-.152-.666-.834h4.916v-1.15h-3.082c-.133.501-.599.685-1.233.617V14.08l.9.166c.25.05.368.166.368.216h6.714c.3 0 .466-.133.667-.367l.999.3c.649.198.266.515.266.915v3.049c0 .732-.599.966-1.265.815v-.551h-3.049v1.15h3.55c.316 0 .45-.151.716-.466.35.35.617.533.617.767 0 .383-.335.534-.833.534h-4.047v.9H47.7c.284 0 .417-.116.717-.465.382.367.583.55.583.767 0 .418-.3.55-.832.55H35.949c-.266 0-.332-.132-.634-.85zm0-3.68V15.28h-3.05v2.548zm-2-2.317c.465.266 1.049.616 1.283 1.048.45.85-.534 1.683-1 .6-.283-.667-.417-1.1-.532-1.45-.066-.216.067-.3.249-.199m.133 7.197c.516.367 1.034.782 1.316 1.282.583 1.034-.818 1.867-1.15.65-.216-.783-.35-1.301-.465-1.784-.033-.133.1-.284.299-.15zm6.198-4.88V15.28h-3.049v2.548zm-2.382 4.963c.599.299 1.2.616 1.565 1.182.5.782-.599 1.816-1.15.634-.332-.717-.5-1.167-.681-1.615-.066-.166.1-.284.266-.199zm.883-7.446.717.515c.332.234.367.317.116.533-.383.35-.9.85-1.467 1.301-.199.151-.35-.018-.267-.184.3-.598.584-1.283.901-2.165m2.48 7.446c1.117.465 1.8.9 2.149 1.366.732.966-.234 1.931-1.017.85-.5-.7-.865-1.316-1.383-1.982-.116-.151-.018-.35.249-.234zM55.209 26.825v-4.681h-1.9c-.216 0-.284-.2-.533-.833h2.433v-1.95h-1.017c-.198 0-.284-.133-.45-.533a8 8 0 0 1-.75.717c-.165.15-.35-.066-.233-.25 1.117-1.748 2.249-3.913 2.731-5.362l.783.5c.317.199.382.284.199.634 1.033.634 1.665.999 2.047 1.45.7.8-.1 1.999-.85.932-.433-.634-.999-1.499-1.434-2-.45.733-1.315 2.05-2.231 3.1h2.865c.267 0 .433-.151.682-.45.334.316.583.5.583.732 0 .332-.299.533-.817.533h-.883v1.95h1.049c.249 0 .4-.152.682-.45.35.331.598.515.598.749 0 .35-.317.533-.832.533h-1.5v4.382c.8-.216 1.55-.432 2.332-.684.25-.083.4.166.166.3-1.132.699-3.481 1.582-4.865 2.097-.45.166-.533.116-1.348-.9.9-.166 1.715-.332 2.483-.516zm-1.567-3.665c.482.515 1.049 1.333 1.182 1.932.234 1.082-.948 1.582-1.132.432l-.35-2.216c-.032-.234.151-.3.3-.15zm5.748-3.464.983.199c.184.032.267.115.267.233h3.416c.267 0 .433-.115.634-.35l1.067.333c.566.183.183.55.183.865v3.33c0 .668-.583.816-1.25.768v-.599h-.465v2.433c0 .5.083.634.533.684.7.066 1.233.05 1.532-.065.249-.1.35-.483.45-1.2.018-.116.217-.151.25 0 .133.634.233.999.482 1.2.4.332.234.75-.115.9-.418.184-.984.267-2.134.25-2.249-.033-2.231-.368-2.231-2.25v-1.949h-.634c-.15.815-.5 1.748-1.016 2.382-.732.916-2 1.917-4.448 2.083-.249.018-.216-.267-.032-.332 1.516-.55 2.782-1.167 3.499-2.216.432-.634.649-1.233.8-1.917h-.516c-.05.55-.75.767-1.25.667v-5.45zm-1.915 3.147.783.382c.35.166.382.216.234.5-.25.484-.984 1.684-1.4 2.217-.132.166-.366.05-.298-.15.198-.617.5-1.983.681-2.95m3.713-4.332a.9.9 0 0 1-.281-.35c-.3-.598-.483-1.066-.6-1.366-.065-.166.084-.266.285-.183.383.166 1.05.465 1.333.85.317.418.166.865-.133 1.049h1.5a19 19 0 0 0 .716-2.015h-4.53c-.25 0-.3-.133-.599-.815h3.582c-.065-.065-.15-.151-.216-.25-.267-.4-.551-.9-.684-1.149-.116-.198.017-.284.234-.234.515.134 1.116.3 1.449.65.299.316.216.749-.033.983h1.965c.249 0 .417-.133.681-.433.383.35.584.534.584.75 0 .35-.267.5-.782.5h-1.5l.75.45c.3.184.3.267.116.484-.267.284-.65.7-1.05 1.082h2.217c.267 0 .433-.166.717-.483.35.35.598.533.598.732 0 .35-.317.566-.815.566h-7.63c-.266 0-.331-.217-.598-.818h2.732zm3.5 3.384v-.949H60.64v.948zm0 1.765v-.948H60.64v.948zM72.954 17.512c.183-1.265.332-2.498.4-3.499l.817.166c.418.083.466.184.45.433a79 79 0 0 1-.367 2.898h.933c.317 0 .484-.033.717-.267l.551.367c.4.267.418.332.383.733-.234 2.415-.7 4.346-1.45 5.997q0 .017-.017.032c.418.3.818.65 1.215 1.067.883.933.234 2.415-.817 1.049-.3-.382-.6-.767-.934-1.117-1.016 1.665-2.533 3.031-3.564 3.55-.25.133-.466-.05-.217-.285 1.017-.983 2.199-2.299 3.05-4.047-.383-.4-.75-.767-1.133-1.1-.317.75-.8.818-1.532.516.566-1.3 1.05-3.464 1.384-5.63h-1.45c-.266 0-.331-.183-.598-.865h2.184zm1.514 6.232c.548-1.434.948-3.283 1.1-5.364h-1.45c-.281 1.666-.616 3.416-.966 4.581.45.267.901.516 1.316.783m.516 3.914H78V14.629l1.034.25c.166.05.249.115.266.216h2.415c.3 0 .45-.133.682-.383l1.132.418c.599.216.166.5.166.883v11.645h.617c.332 0 .5-.199.817-.551.4.382.65.533.65.832 0 .433-.368.6-.95.6h-9.211c-.3 0-.317-.167-.634-.884zm7.413-8.445v-3.248h-3.099v3.248zm0 4.163v-3.298h-3.099v3.298zm0 4.282v-3.416h-3.099v3.416z" style="fill:#fff;fill-opacity:1"/><path fill="#fff" d="M41.43 27.809V26.64h-3.88c-.318 0-.383-.15-.682-.865h4.563v-1.5l1.082.2c.183.032.284.15.284.266v1.034h3.114c.284 0 .45-.133.75-.483.4.367.634.584.634.783 0 .417-.317.566-.9.566h-3.598v1.167h5.164c.332 0 .483-.134.783-.483.4.382.649.566.649.782 0 .4-.3.599-.866.599H35.65c-.317 0-.4-.25-.7-.9h6.48zm-5.83-3.283c.865-.634 1.348-1.016 1.881-1.716.101-.133.383-.115.332.1-.249 1-.465 1.651-.915 2.232-1.1 1.416-2.365.166-1.3-.616zm5.864-3.016v-.9h-4.25c-.299 0-.349-.152-.666-.834h4.916v-1.15h-3.082c-.133.501-.599.685-1.233.617V14.08l.9.166c.25.05.368.166.368.216h6.714c.3 0 .466-.133.667-.367l.999.3c.649.198.266.515.266.915v3.049c0 .732-.599.966-1.265.815v-.551h-3.049v1.15h3.55c.316 0 .45-.151.716-.466.35.35.617.533.617.767 0 .383-.335.534-.833.534h-4.047v.9H47.7c.284 0 .417-.116.717-.465.382.367.583.55.583.767 0 .418-.3.55-.832.55H35.949c-.266 0-.332-.132-.634-.85zm0-3.68V15.28h-3.05v2.548zm-2-2.317c.465.266 1.049.616 1.283 1.048.45.85-.534 1.683-1 .6-.283-.667-.417-1.1-.532-1.45-.066-.216.067-.3.249-.199m.133 7.197c.516.367 1.034.782 1.316 1.282.583 1.034-.818 1.867-1.15.65-.216-.783-.35-1.301-.465-1.784-.033-.133.1-.284.299-.15zm6.198-4.88V15.28h-3.049v2.548zm-2.382 4.963c.599.299 1.2.616 1.565 1.182.5.782-.599 1.816-1.15.634-.332-.717-.5-1.167-.681-1.615-.066-.166.1-.284.266-.199zm.883-7.446.717.515c.332.234.367.317.116.533-.383.35-.9.85-1.467 1.301-.199.151-.35-.018-.267-.184.3-.598.584-1.283.901-2.165m2.48 7.446c1.117.465 1.8.9 2.149 1.366.732.966-.234 1.931-1.017.85-.5-.7-.865-1.316-1.383-1.982-.116-.151-.018-.35.249-.234zM55.209 26.825v-4.681h-1.9c-.216 0-.284-.2-.533-.833h2.433v-1.95h-1.017c-.198 0-.284-.133-.45-.533a8 8 0 0 1-.75.717c-.165.15-.35-.066-.233-.25 1.117-1.748 2.249-3.913 2.731-5.362l.783.5c.317.199.382.284.199.634 1.033.634 1.665.999 2.047 1.45.7.8-.1 1.999-.85.932-.433-.634-.999-1.499-1.434-2-.45.733-1.315 2.05-2.231 3.1h2.865c.267 0 .433-.151.682-.45.334.316.583.5.583.732 0 .332-.299.533-.817.533h-.883v1.95h1.049c.249 0 .4-.152.682-.45.35.331.598.515.598.749 0 .35-.317.533-.832.533h-1.5v4.382c.8-.216 1.55-.432 2.332-.684.25-.083.4.166.166.3-1.132.699-3.481 1.582-4.865 2.097-.45.166-.533.116-1.348-.9.9-.166 1.715-.332 2.483-.516zm-1.567-3.665c.482.515 1.049 1.333 1.182 1.932.234 1.082-.948 1.582-1.132.432l-.35-2.216c-.032-.234.151-.3.3-.15zm5.748-3.464.983.199c.184.032.267.115.267.233h3.416c.267 0 .433-.115.634-.35l1.067.333c.566.183.183.55.183.865v3.33c0 .668-.583.816-1.25.768v-.599h-.465v2.433c0 .5.083.634.533.684.7.066 1.233.05 1.532-.065.249-.1.35-.483.45-1.2.018-.116.217-.151.25 0 .133.634.233.999.482 1.2.4.332.234.75-.115.9-.418.184-.984.267-2.134.25-2.249-.033-2.231-.368-2.231-2.25v-1.949h-.634c-.15.815-.5 1.748-1.016 2.382-.732.916-2 1.917-4.448 2.083-.249.018-.216-.267-.032-.332 1.516-.55 2.782-1.167 3.499-2.216.432-.634.649-1.233.8-1.917h-.516c-.05.55-.75.767-1.25.667v-5.45zm-1.915 3.147.783.382c.35.166.382.216.234.5-.25.484-.984 1.684-1.4 2.217-.132.166-.366.05-.298-.15.198-.617.5-1.983.681-2.95m3.713-4.332a.9.9 0 0 1-.281-.35c-.3-.598-.483-1.066-.6-1.366-.065-.166.084-.266.285-.183.383.166 1.05.465 1.333.85.317.418.166.865-.133 1.049h1.5a19 19 0 0 0 .716-2.015h-4.53c-.25 0-.3-.133-.599-.815h3.582c-.065-.065-.15-.151-.216-.25-.267-.4-.551-.9-.684-1.149-.116-.198.017-.284.234-.234.515.134 1.116.3 1.449.65.299.316.216.749-.033.983h1.965c.249 0 .417-.133.681-.433.383.35.584.534.584.75 0 .35-.267.5-.782.5h-1.5l.75.45c.3.184.3.267.116.484-.267.284-.65.7-1.05 1.082h2.217c.267 0 .433-.166.717-.483.35.35.598.533.598.732 0 .35-.317.566-.815.566h-7.63c-.266 0-.331-.217-.598-.818h2.732zm3.5 3.384v-.949H60.64v.948zm0 1.765v-.948H60.64v.948zM72.954 17.512c.183-1.265.332-2.498.4-3.499l.817.166c.418.083.466.184.45.433a79 79 0 0 1-.367 2.898h.933c.317 0 .484-.033.717-.267l.551.367c.4.267.418.332.383.733-.234 2.415-.7 4.346-1.45 5.997q0 .017-.017.032c.418.3.818.65 1.215 1.067.883.933.234 2.415-.817 1.049-.3-.382-.6-.767-.934-1.117-1.016 1.665-2.533 3.031-3.564 3.55-.25.133-.466-.05-.217-.285 1.017-.983 2.199-2.299 3.05-4.047-.383-.4-.75-.767-1.133-1.1-.317.75-.8.818-1.532.516.566-1.3 1.05-3.464 1.384-5.63h-1.45c-.266 0-.331-.183-.598-.865h2.184zm1.514 6.232c.548-1.434.948-3.283 1.1-5.364h-1.45c-.281 1.666-.616 3.416-.966 4.581.45.267.901.516 1.316.783m.516 3.914H78V14.629l1.034.25c.166.05.249.115.266.216h2.415c.3 0 .45-.133.682-.383l1.132.418c.599.216.166.5.166.883v11.645h.617c.332 0 .5-.199.817-.551.4.382.65.533.65.832 0 .433-.368.6-.95.6h-9.211c-.3 0-.317-.167-.634-.884zm7.413-8.445v-3.248h-3.099v3.248zm0 4.163v-3.298h-3.099v3.298zm0 4.282v-3.416h-3.099v3.416z" style="fill:#fff;fill-opacity:1"/></g><defs><linearGradient id="b" x1="122.569" x2="129.874" y1="18.413" y2="18.413" gradientUnits="userSpaceOnUse"><stop stop-color="#E6AF3C" style="stop-color:#e6af3c;stop-color:color(display-p3 .902 .6863 .2353);stop-opacity:1"/><stop offset=".14" stop-color="#E8B547" style="stop-color:#e8b547;stop-color:color(display-p3 .9098 .7098 .2784);stop-opacity:1"/><stop offset=".39" stop-color="#EDC766" style="stop-color:#edc766;stop-color:color(display-p3 .9294 .7804 .4);stop-opacity:1"/><stop offset=".72" stop-color="#F6E398" style="stop-color:#f6e398;stop-color:color(display-p3 .9647 .8902 .5961);stop-opacity:1"/><stop offset="1" stop-color="#FFFFC9" style="stop-color:#ffffc9;stop-color:color(display-p3 1 1 .7882);stop-opacity:1"/></linearGradient><linearGradient id="c" x1="122.43" x2="122.43" y1="5.078" y2="28.925" gradientUnits="userSpaceOnUse"><stop stop-color="#fff" style="stop-color:white;stop-opacity:1"/><stop offset=".09" stop-color="#fff" stop-opacity=".97" style="stop-color:white;stop-opacity:.97"/><stop offset=".22" stop-color="#fff" stop-opacity=".89" style="stop-color:white;stop-opacity:.89"/><stop offset=".37" stop-color="#fff" stop-opacity=".76" style="stop-color:white;stop-opacity:.76"/><stop offset=".55" stop-color="#fff" stop-opacity=".58" style="stop-color:white;stop-opacity:.58"/><stop offset=".75" stop-color="#fff" stop-opacity=".34" style="stop-color:white;stop-opacity:.34"/><stop offset=".96" stop-color="#fff" stop-opacity=".06" style="stop-color:white;stop-opacity:.06"/><stop offset="1" stop-color="#fff" stop-opacity="0" style="stop-color:none;stop-opacity:0"/></linearGradient><linearGradient id="d" x1="141.73" x2="150.22" y1="17.417" y2="17.417" gradientUnits="userSpaceOnUse"><stop stop-color="#fff" style="stop-color:white;stop-opacity:1"/><stop offset=".26" stop-color="#F3F3F3" style="stop-color:#f3f3f3;stop-color:color(display-p3 .9529 .9529 .9529);stop-opacity:1"/><stop offset=".71" stop-color="#D4D4D4" style="stop-color:#d4d4d4;stop-color:color(display-p3 .8299 .8299 .8299);stop-opacity:1"/><stop offset="1" stop-color="#BEBEBE" style="stop-color:#bebebe;stop-color:color(display-p3 .7459 .7459 .7459);stop-opacity:1"/></linearGradient><linearGradient id="e" x1="141.672" x2="150.275" y1="17.412" y2="17.412" gradientUnits="userSpaceOnUse"><stop stop-color="#fff" style="stop-color:white;stop-opacity:1"/><stop offset=".09" stop-color="#FFFFFC" stop-opacity=".95" style="stop-color:#fffffc;stop-color:color(display-p3 1 1 .9882);stop-opacity:.95"/><stop offset=".24" stop-color="#FFFFF5" stop-opacity=".83" style="stop-color:#fffff5;stop-color:color(display-p3 1 1 .9608);stop-opacity:.83"/><stop offset=".45" stop-color="#FFFFEB" stop-opacity=".63" style="stop-color:#ffffeb;stop-color:color(display-p3 1 1 .9216);stop-opacity:.63"/><stop offset=".7" stop-color="#FFFFDC" stop-opacity=".36" style="stop-color:#ffffdc;stop-color:color(display-p3 1 1 .8627);stop-opacity:.36"/><stop offset=".99" stop-color="#FFFFC9" stop-opacity=".01" style="stop-color:#ffffc9;stop-color:color(display-p3 1 1 .7882);stop-opacity:.01"/><stop offset="1" stop-color="#FFFFC9" stop-opacity="0" style="stop-color:none;stop-opacity:0"/></linearGradient><linearGradient id="f" x1="149.289" x2="159.173" y1="8.761" y2="8.761" gradientUnits="userSpaceOnUse"><stop stop-color="#fff" style="stop-color:white;stop-opacity:1"/><stop offset=".26" stop-color="#F3F3F3" style="stop-color:#f3f3f3;stop-color:color(display-p3 .9529 .9529 .9529);stop-opacity:1"/><stop offset=".71" stop-color="#D4D4D4" style="stop-color:#d4d4d4;stop-color:color(display-p3 .8299 .8299 .8299);stop-opacity:1"/><stop offset="1" stop-color="#BEBEBE" style="stop-color:#bebebe;stop-color:color(display-p3 .7459 .7459 .7459);stop-opacity:1"/></linearGradient><linearGradient id="g" x1="150.557" x2="158.318" y1="17.738" y2="17.738" gradientUnits="userSpaceOnUse"><stop stop-color="#fff" style="stop-color:white;stop-opacity:1"/><stop offset=".26" stop-color="#F3F3F3" style="stop-color:#f3f3f3;stop-color:color(display-p3 .9529 .9529 .9529);stop-opacity:1"/><stop offset=".71" stop-color="#D4D4D4" style="stop-color:#d4d4d4;stop-color:color(display-p3 .8299 .8299 .8299);stop-opacity:1"/><stop offset="1" stop-color="#BEBEBE" style="stop-color:#bebebe;stop-color:color(display-p3 .7459 .7459 .7459);stop-opacity:1"/></linearGradient><linearGradient id="h" x1="162.876" x2="162.876" y1="3.775" y2="28.337" gradientUnits="userSpaceOnUse"><stop stop-color="#fff" style="stop-color:white;stop-opacity:1"/><stop offset=".27" stop-color="#FFFFEA" stop-opacity=".62" style="stop-color:#ffffea;stop-color:color(display-p3 1 1 .9176);stop-opacity:.62"/><stop offset=".59" stop-color="#FFFFD2" stop-opacity=".18" style="stop-color:#ffffd2;stop-color:color(display-p3 1 1 .8235);stop-opacity:.18"/><stop offset=".73" stop-color="#FFFFC9" stop-opacity="0" style="stop-color:none;stop-opacity:0"/></linearGradient><linearGradient id="i" x1="162.876" x2="162.876" y1="4.119" y2="28.148" gradientUnits="userSpaceOnUse"><stop stop-color="#fff" style="stop-color:white;stop-opacity:1"/><stop offset=".09" stop-color="#FCFCFC" stop-opacity=".95" style="stop-color:#fcfcfc;stop-color:color(display-p3 .9882 .9882 .9882);stop-opacity:.95"/><stop offset=".24" stop-color="#F4F4F4" stop-opacity=".83" style="stop-color:#f4f4f4;stop-color:color(display-p3 .9569 .9569 .9569);stop-opacity:.83"/><stop offset=".45" stop-color="#E7E7E7" stop-opacity=".63" style="stop-color:#e7e7e7;stop-color:color(display-p3 .9059 .9059 .9059);stop-opacity:.63"/><stop offset=".7" stop-color="#D5D5D5" stop-opacity=".36" style="stop-color:#d5d5d5;stop-color:color(display-p3 .8353 .8353 .8353);stop-opacity:.36"/><stop offset=".99" stop-color="#BEBEBE" stop-opacity=".01" style="stop-color:#bebebe;stop-color:color(display-p3 .7451 .7451 .7451);stop-opacity:.01"/><stop offset="1" stop-color="#BEBEBE" stop-opacity="0" style="stop-color:none;stop-opacity:0"/></linearGradient><linearGradient id="j" x1="159.138" x2="161.955" y1="17.708" y2="17.708" gradientUnits="userSpaceOnUse"><stop stop-color="#fff" style="stop-color:white;stop-opacity:1"/><stop offset=".26" stop-color="#F3F3F3" style="stop-color:#f3f3f3;stop-color:color(display-p3 .9529 .9529 .9529);stop-opacity:1"/><stop offset=".71" stop-color="#D4D4D4" style="stop-color:#d4d4d4;stop-color:color(display-p3 .8299 .8299 .8299);stop-opacity:1"/><stop offset="1" stop-color="#BEBEBE" style="stop-color:#bebebe;stop-color:color(display-p3 .7459 .7459 .7459);stop-opacity:1"/></linearGradient><linearGradient id="k" x1="151.241" x2="153.609" y1="23.764" y2="23.764" gradientUnits="userSpaceOnUse"><stop stop-color="#fff" style="stop-color:white;stop-opacity:1"/><stop offset=".26" stop-color="#F3F3F3" style="stop-color:#f3f3f3;stop-color:color(display-p3 .9529 .9529 .9529);stop-opacity:1"/><stop offset=".71" stop-color="#D4D4D4" style="stop-color:#d4d4d4;stop-color:color(display-p3 .8299 .8299 .8299);stop-opacity:1"/><stop offset="1" stop-color="#BEBEBE" style="stop-color:#bebebe;stop-color:color(display-p3 .7459 .7459 .7459);stop-opacity:1"/></linearGradient><linearGradient id="l" x1="154.798" x2="157.706" y1="23.605" y2="23.605" gradientUnits="userSpaceOnUse"><stop stop-color="#fff" style="stop-color:white;stop-opacity:1"/><stop offset=".26" stop-color="#F3F3F3" style="stop-color:#f3f3f3;stop-color:color(display-p3 .9529 .9529 .9529);stop-opacity:1"/><stop offset=".71" stop-color="#D4D4D4" style="stop-color:#d4d4d4;stop-color:color(display-p3 .8299 .8299 .8299);stop-opacity:1"/><stop offset="1" stop-color="#BEBEBE" style="stop-color:#bebebe;stop-color:color(display-p3 .7459 .7459 .7459);stop-opacity:1"/></linearGradient><linearGradient id="m" x1="149.204" x2="159.228" y1="8.753" y2="8.753" gradientUnits="userSpaceOnUse"><stop stop-color="#fff" style="stop-color:white;stop-opacity:1"/><stop offset=".07" stop-color="#FFFFFC" stop-opacity=".95" style="stop-color:#fffffc;stop-color:color(display-p3 1 1 .9882);stop-opacity:.95"/><stop offset=".2" stop-color="#FFFFF5" stop-opacity=".83" style="stop-color:#fffff5;stop-color:color(display-p3 1 1 .9608);stop-opacity:.83"/><stop offset=".37" stop-color="#FFFFEB" stop-opacity=".63" style="stop-color:#ffffeb;stop-color:color(display-p3 1 1 .9216);stop-opacity:.63"/><stop offset=".57" stop-color="#FFFFDC" stop-opacity=".36" style="stop-color:#ffffdc;stop-color:color(display-p3 1 1 .8627);stop-opacity:.36"/><stop offset=".8" stop-color="#FFFFC9" stop-opacity=".01" style="stop-color:#ffffc9;stop-color:color(display-p3 1 1 .7882);stop-opacity:.01"/><stop offset=".81" stop-color="#FFFFC9" stop-opacity="0" style="stop-color:none;stop-opacity:0"/></linearGradient><linearGradient id="n" x1="150.499" x2="158.376" y1="17.733" y2="17.733" gradientUnits="userSpaceOnUse"><stop stop-color="#fff" style="stop-color:white;stop-opacity:1"/><stop offset=".07" stop-color="#FFFFFC" stop-opacity=".95" style="stop-color:#fffffc;stop-color:color(display-p3 1 1 .9882);stop-opacity:.95"/><stop offset=".2" stop-color="#FFFFF5" stop-opacity=".83" style="stop-color:#fffff5;stop-color:color(display-p3 1 1 .9608);stop-opacity:.83"/><stop offset=".37" stop-color="#FFFFEB" stop-opacity=".63" style="stop-color:#ffffeb;stop-color:color(display-p3 1 1 .9216);stop-opacity:.63"/><stop offset=".57" stop-color="#FFFFDC" stop-opacity=".36" style="stop-color:#ffffdc;stop-color:color(display-p3 1 1 .8627);stop-opacity:.36"/><stop offset=".8" stop-color="#FFFFC9" stop-opacity=".01" style="stop-color:#ffffc9;stop-color:color(display-p3 1 1 .7882);stop-opacity:.01"/><stop offset=".81" stop-color="#FFFFC9" stop-opacity="0" style="stop-color:none;stop-opacity:0"/></linearGradient><linearGradient id="o" x1="159.082" x2="162.01" y1="17.709" y2="17.709" gradientUnits="userSpaceOnUse"><stop stop-color="#fff" style="stop-color:white;stop-opacity:1"/><stop offset=".07" stop-color="#FFFFFC" stop-opacity=".95" style="stop-color:#fffffc;stop-color:color(display-p3 1 1 .9882);stop-opacity:.95"/><stop offset=".2" stop-color="#FFFFF5" stop-opacity=".83" style="stop-color:#fffff5;stop-color:color(display-p3 1 1 .9608);stop-opacity:.83"/><stop offset=".37" stop-color="#FFFFEB" stop-opacity=".63" style="stop-color:#ffffeb;stop-color:color(display-p3 1 1 .9216);stop-opacity:.63"/><stop offset=".57" stop-color="#FFFFDC" stop-opacity=".36" style="stop-color:#ffffdc;stop-color:color(display-p3 1 1 .8627);stop-opacity:.36"/><stop offset=".8" stop-color="#FFFFC9" stop-opacity=".01" style="stop-color:#ffffc9;stop-color:color(display-p3 1 1 .7882);stop-opacity:.01"/><stop offset=".81" stop-color="#FFFFC9" stop-opacity="0" style="stop-color:none;stop-opacity:0"/></linearGradient><linearGradient id="p" x1="151.183" x2="153.664" y1="23.764" y2="23.764" gradientUnits="userSpaceOnUse"><stop stop-color="#fff" style="stop-color:white;stop-opacity:1"/><stop offset=".26" stop-color="#F3F3F3" style="stop-color:#f3f3f3;stop-color:color(display-p3 .9529 .9529 .9529);stop-opacity:1"/><stop offset=".71" stop-color="#D4D4D4" style="stop-color:#d4d4d4;stop-color:color(display-p3 .8299 .8299 .8299);stop-opacity:1"/><stop offset="1" stop-color="#BEBEBE" style="stop-color:#bebebe;stop-color:color(display-p3 .7459 .7459 .7459);stop-opacity:1"/></linearGradient><linearGradient id="q" x1="154.746" x2="157.762" y1="23.572" y2="23.572" gradientUnits="userSpaceOnUse"><stop stop-color="#fff" style="stop-color:white;stop-opacity:1"/><stop offset=".07" stop-color="#FFFFFC" stop-opacity=".95" style="stop-color:#fffffc;stop-color:color(display-p3 1 1 .9882);stop-opacity:.95"/><stop offset=".2" stop-color="#FFFFF5" stop-opacity=".83" style="stop-color:#fffff5;stop-color:color(display-p3 1 1 .9608);stop-opacity:.83"/><stop offset=".37" stop-color="#FFFFEB" stop-opacity=".63" style="stop-color:#ffffeb;stop-color:color(display-p3 1 1 .9216);stop-opacity:.63"/><stop offset=".57" stop-color="#FFFFDC" stop-opacity=".36" style="stop-color:#ffffdc;stop-color:color(display-p3 1 1 .8627);stop-opacity:.36"/><stop offset=".8" stop-color="#FFFFC9" stop-opacity=".01" style="stop-color:#ffffc9;stop-color:color(display-p3 1 1 .7882);stop-opacity:.01"/><stop offset=".81" stop-color="#FFFFC9" stop-opacity="0" style="stop-color:none;stop-opacity:0"/></linearGradient><linearGradient id="r" x1="147" x2="176.354" y1="20.848" y2="14.461" gradientUnits="userSpaceOnUse"><stop stop-color="#E6AF3C" style="stop-color:#e6af3c;stop-color:color(display-p3 .902 .6863 .2353);stop-opacity:1"/><stop offset=".14" stop-color="#E8B547" style="stop-color:#e8b547;stop-color:color(display-p3 .9098 .7098 .2784);stop-opacity:1"/><stop offset=".39" stop-color="#EDC766" style="stop-color:#edc766;stop-color:color(display-p3 .9294 .7804 .4);stop-opacity:1"/><stop offset=".72" stop-color="#F6E398" style="stop-color:#f6e398;stop-color:color(display-p3 .9647 .8902 .5961);stop-opacity:1"/><stop offset="1" stop-color="#FFFFC9" style="stop-color:#ffffc9;stop-color:color(display-p3 1 1 .7882);stop-opacity:1"/></linearGradient><linearGradient id="s" x1="148.434" x2="174" y1="16.675" y2="16.675" gradientUnits="userSpaceOnUse"><stop stop-color="#fff" style="stop-color:white;stop-opacity:1"/><stop offset=".09" stop-color="#FFFFFC" stop-opacity=".95" style="stop-color:#fffffc;stop-color:color(display-p3 1 1 .9882);stop-opacity:.95"/><stop offset=".24" stop-color="#FFFFF5" stop-opacity=".83" style="stop-color:#fffff5;stop-color:color(display-p3 1 1 .9608);stop-opacity:.83"/><stop offset=".45" stop-color="#FFFFEB" stop-opacity=".63" style="stop-color:#ffffeb;stop-color:color(display-p3 1 1 .9216);stop-opacity:.63"/><stop offset=".7" stop-color="#FFFFDC" stop-opacity=".36" style="stop-color:#ffffdc;stop-color:color(display-p3 1 1 .8627);stop-opacity:.36"/><stop offset=".99" stop-color="#FFFFC9" stop-opacity=".01" style="stop-color:#ffffc9;stop-color:color(display-p3 1 1 .7882);stop-opacity:.01"/><stop offset="1" stop-color="#FFFFC9" stop-opacity="0" style="stop-color:none;stop-opacity:0"/></linearGradient><linearGradient id="t" x1="170.468" x2="175.66" y1="9.893" y2="4.884" gradientUnits="userSpaceOnUse"><stop stop-color="#E6AF3C" style="stop-color:#e6af3c;stop-color:color(display-p3 .902 .6863 .2353);stop-opacity:1"/><stop offset=".14" stop-color="#E8B547" style="stop-color:#e8b547;stop-color:color(display-p3 .9098 .7098 .2784);stop-opacity:1"/><stop offset=".39" stop-color="#EDC766" style="stop-color:#edc766;stop-color:color(display-p3 .9294 .7804 .4);stop-opacity:1"/><stop offset=".72" stop-color="#F6E398" style="stop-color:#f6e398;stop-color:color(display-p3 .9647 .8902 .5961);stop-opacity:1"/><stop offset="1" stop-color="#FFFFC9" style="stop-color:#ffffc9;stop-color:color(display-p3 1 1 .7882);stop-opacity:1"/></linearGradient><linearGradient id="u" x1="94.575" x2="94.575" y1="10.381" y2="39.37" gradientUnits="userSpaceOnUse"><stop stop-color="#fff" style="stop-color:white;stop-opacity:1"/><stop offset=".09" stop-color="#fff" stop-opacity=".97" style="stop-color:white;stop-opacity:.97"/><stop offset=".22" stop-color="#fff" stop-opacity=".89" style="stop-color:white;stop-opacity:.89"/><stop offset=".37" stop-color="#fff" stop-opacity=".76" style="stop-color:white;stop-opacity:.76"/><stop offset=".55" stop-color="#fff" stop-opacity=".58" style="stop-color:white;stop-opacity:.58"/><stop offset=".75" stop-color="#fff" stop-opacity=".34" style="stop-color:white;stop-opacity:.34"/><stop offset=".96" stop-color="#fff" stop-opacity=".06" style="stop-color:white;stop-opacity:.06"/><stop offset="1" stop-color="#fff" stop-opacity="0" style="stop-color:none;stop-opacity:0"/></linearGradient><linearGradient id="v" x1="85.886" x2="99.123" y1="16.451" y2="16.451" gradientUnits="userSpaceOnUse"><stop stop-color="#E6AF3C" style="stop-color:#e6af3c;stop-color:color(display-p3 .902 .6863 .2353);stop-opacity:1"/><stop offset=".14" stop-color="#E8B547" style="stop-color:#e8b547;stop-color:color(display-p3 .9098 .7098 .2784);stop-opacity:1"/><stop offset=".39" stop-color="#EDC766" style="stop-color:#edc766;stop-color:color(display-p3 .9294 .7804 .4);stop-opacity:1"/><stop offset=".72" stop-color="#F6E398" style="stop-color:#f6e398;stop-color:color(display-p3 .9647 .8902 .5961);stop-opacity:1"/><stop offset="1" stop-color="#FFFFC9" style="stop-color:#ffffc9;stop-color:color(display-p3 1 1 .7882);stop-opacity:1"/></linearGradient><linearGradient id="w" x1="93.244" x2="96.329" y1="6.114" y2="6.114" gradientUnits="userSpaceOnUse"><stop stop-color="#E6AF3C" style="stop-color:#e6af3c;stop-color:color(display-p3 .902 .6863 .2353);stop-opacity:1"/><stop offset=".14" stop-color="#E8B547" style="stop-color:#e8b547;stop-color:color(display-p3 .9098 .7098 .2784);stop-opacity:1"/><stop offset=".39" stop-color="#EDC766" style="stop-color:#edc766;stop-color:color(display-p3 .9294 .7804 .4);stop-opacity:1"/><stop offset=".72" stop-color="#F6E398" style="stop-color:#f6e398;stop-color:color(display-p3 .9647 .8902 .5961);stop-opacity:1"/><stop offset="1" stop-color="#FFFFC9" style="stop-color:#ffffc9;stop-color:color(display-p3 1 1 .7882);stop-opacity:1"/></linearGradient><clipPath id="a"><path fill="#fff" d="M0 0h140v37.799H0z" style="fill:#fff;fill-opacity:1" transform="translate(34 3)"/></clipPath></defs></svg>